<svg width="25" height="26" viewBox="0 0 25 26" fill="none" xmlns="http://www.w3.org/2000/svg">
<g clip-path="url(#clip0_30_1778)">
<path d="M7.29167 0.5H4.16667C3.0616 0.5 2.00179 0.938987 1.22039 1.72039C0.438987 2.50179 0 3.5616 0 4.66667L0 7.79167C0 8.89674 0.438987 9.95654 1.22039 10.7379C2.00179 11.5193 3.0616 11.9583 4.16667 11.9583H7.29167C8.39674 11.9583 9.45654 11.5193 10.2379 10.7379C11.0193 9.95654 11.4583 8.89674 11.4583 7.79167V4.66667C11.4583 3.5616 11.0193 2.50179 10.2379 1.72039C9.45654 0.938987 8.39674 0.5 7.29167 0.5V0.5ZM9.375 7.79167C9.375 8.3442 9.15551 8.8741 8.7648 9.2648C8.3741 9.65551 7.8442 9.875 7.29167 9.875H4.16667C3.61413 9.875 3.08423 9.65551 2.69353 9.2648C2.30283 8.8741 2.08333 8.3442 2.08333 7.79167V4.66667C2.08333 4.11413 2.30283 3.58423 2.69353 3.19353C3.08423 2.80283 3.61413 2.58333 4.16667 2.58333H7.29167C7.8442 2.58333 8.3741 2.80283 8.7648 3.19353C9.15551 3.58423 9.375 4.11413 9.375 4.66667V7.79167Z" fill="#2B5EC0"/>
<path d="M20.8332 0.5H17.7082C16.6031 0.5 15.5433 0.938987 14.7619 1.72039C13.9805 2.50179 13.5415 3.5616 13.5415 4.66667V7.79167C13.5415 8.89674 13.9805 9.95655 14.7619 10.738C15.5433 11.5194 16.6031 11.9583 17.7082 11.9583H20.8332C21.9382 11.9583 22.998 11.5194 23.7794 10.738C24.5608 9.95655 24.9998 8.89674 24.9998 7.79167V4.66667C24.9998 3.5616 24.5608 2.50179 23.7794 1.72039C22.998 0.938987 21.9382 0.5 20.8332 0.5V0.5ZM22.9165 7.79167C22.9165 8.34421 22.697 8.87411 22.3063 9.26481C21.9156 9.65551 21.3857 9.87501 20.8332 9.87501H17.7082C17.1556 9.87501 16.6257 9.65551 16.235 9.26481C15.8443 8.87411 15.6248 8.34421 15.6248 7.79167V4.66667C15.6248 4.11413 15.8443 3.58423 16.235 3.19353C16.6257 2.80283 17.1556 2.58333 17.7082 2.58333H20.8332C21.3857 2.58333 21.9156 2.80283 22.3063 3.19353C22.697 3.58423 22.9165 4.11413 22.9165 4.66667V7.79167Z" fill="#2B5EC0"/>
<path d="M7.29167 14.0416H4.16667C3.0616 14.0416 2.00179 14.4806 1.22039 15.262C0.438987 16.0434 0 17.1032 0 18.2083L0 21.3333C0 22.4384 0.438987 23.4982 1.22039 24.2796C2.00179 25.061 3.0616 25.5 4.16667 25.5H7.29167C8.39674 25.5 9.45654 25.061 10.2379 24.2796C11.0193 23.4982 11.4583 22.4384 11.4583 21.3333V18.2083C11.4583 17.1032 11.0193 16.0434 10.2379 15.262C9.45654 14.4806 8.39674 14.0416 7.29167 14.0416ZM9.375 21.3333C9.375 21.8858 9.15551 22.4157 8.7648 22.8064C8.3741 23.1971 7.8442 23.4166 7.29167 23.4166H4.16667C3.61413 23.4166 3.08423 23.1971 2.69353 22.8064C2.30283 22.4157 2.08333 21.8858 2.08333 21.3333V18.2083C2.08333 17.6558 2.30283 17.1259 2.69353 16.7352C3.08423 16.3445 3.61413 16.125 4.16667 16.125H7.29167C7.8442 16.125 8.3741 16.3445 8.7648 16.7352C9.15551 17.1259 9.375 17.6558 9.375 18.2083V21.3333Z" fill="#2B5EC0"/>
<path d="M20.8332 14.0416H17.7082C16.6031 14.0416 15.5433 14.4806 14.7619 15.262C13.9805 16.0434 13.5415 17.1032 13.5415 18.2083V21.3333C13.5415 22.4384 13.9805 23.4982 14.7619 24.2796C15.5433 25.061 16.6031 25.5 17.7082 25.5H20.8332C21.9382 25.5 22.998 25.061 23.7794 24.2796C24.5608 23.4982 24.9998 22.4384 24.9998 21.3333V18.2083C24.9998 17.1032 24.5608 16.0434 23.7794 15.262C22.998 14.4806 21.9382 14.0416 20.8332 14.0416ZM22.9165 21.3333C22.9165 21.8858 22.697 22.4157 22.3063 22.8064C21.9156 23.1971 21.3857 23.4166 20.8332 23.4166H17.7082C17.1556 23.4166 16.6257 23.1971 16.235 22.8064C15.8443 22.4157 15.6248 21.8858 15.6248 21.3333V18.2083C15.6248 17.6558 15.8443 17.1259 16.235 16.7352C16.6257 16.3445 17.1556 16.125 17.7082 16.125H20.8332C21.3857 16.125 21.9156 16.3445 22.3063 16.7352C22.697 17.1259 22.9165 17.6558 22.9165 18.2083V21.3333Z" fill="#2B5EC0"/>
</g>
<defs>
<clipPath id="clip0_30_1778">
<rect width="25" height="25" fill="white" transform="translate(0 0.5)"/>
</clipPath>
</defs>
</svg>
