<svg width="30" height="30" viewBox="0 0 30 30" fill="none" xmlns="http://www.w3.org/2000/svg">
<rect width="30" height="30" rx="5" fill="#FFC7C7"/>
<g clip-path="url(#clip0_232_1133)">
<path d="M20.0002 17C20.0002 17.2652 19.8948 17.5196 19.7073 17.7071C19.5197 17.8947 19.2654 18 19.0002 18H11.0002C10.7349 18 10.4806 17.8947 10.293 17.7071C10.1055 17.5196 10.0002 17.2652 10.0002 17C10.0002 16.7348 10.1055 16.4805 10.293 16.2929C10.4806 16.1054 10.7349 16 11.0002 16H19.0002C19.2654 16 19.5197 16.1054 19.7073 16.2929C19.8948 16.4805 20.0002 16.7348 20.0002 17ZM16.0002 20H11.0002C10.7349 20 10.4806 20.1054 10.293 20.2929C10.1055 20.4805 10.0002 20.7348 10.0002 21C10.0002 21.2652 10.1055 21.5196 10.293 21.7071C10.4806 21.8947 10.7349 22 11.0002 22H16.0002C16.2654 22 16.5197 21.8947 16.7073 21.7071C16.8948 21.5196 17.0002 21.2652 17.0002 21C17.0002 20.7348 16.8948 20.4805 16.7073 20.2929C16.5197 20.1054 16.2654 20 16.0002 20ZM25.0002 13.485V22C24.9986 23.3256 24.4713 24.5965 23.5339 25.5338C22.5966 26.4711 21.3257 26.9984 20.0002 27H10.0002C8.67456 26.9984 7.40371 26.4711 6.46637 25.5338C5.52903 24.5965 5.00174 23.3256 5.00015 22V8.00002C5.00174 6.67443 5.52903 5.40358 6.46637 4.46624C7.40371 3.5289 8.67456 3.00161 10.0002 3.00002H14.5152C15.4348 2.99766 16.3457 3.17761 17.1954 3.52948C18.045 3.88135 18.8165 4.39816 19.4652 5.05002L22.9492 8.53602C23.6014 9.18426 24.1185 9.95548 24.4706 10.805C24.8226 11.6545 25.0026 12.5654 25.0002 13.485ZM18.0512 6.46402C17.7364 6.15918 17.3831 5.89695 17.0002 5.68402V10C17.0002 10.2652 17.1055 10.5196 17.293 10.7071C17.4806 10.8947 17.7349 11 18.0002 11H22.3162C22.1031 10.6172 21.8405 10.2642 21.5352 9.95002L18.0512 6.46402ZM23.0002 13.485C23.0002 13.32 22.9682 13.162 22.9532 13H18.0002C17.2045 13 16.4414 12.684 15.8788 12.1213C15.3162 11.5587 15.0002 10.7957 15.0002 10V5.04702C14.8382 5.03202 14.6792 5.00002 14.5152 5.00002H10.0002C9.2045 5.00002 8.44144 5.31609 7.87883 5.8787C7.31622 6.44131 7.00015 7.20437 7.00015 8.00002V22C7.00015 22.7957 7.31622 23.5587 7.87883 24.1213C8.44144 24.684 9.2045 25 10.0002 25H20.0002C20.7958 25 21.5589 24.684 22.1215 24.1213C22.6841 23.5587 23.0002 22.7957 23.0002 22V13.485Z" fill="#ED4444"/>
</g>
<defs>
<clipPath id="clip0_232_1133">
<rect width="24" height="24" fill="white" transform="translate(3 3)"/>
</clipPath>
</defs>
</svg>
