<svg width="102" height="102" viewBox="0 0 102 102" fill="none" xmlns="http://www.w3.org/2000/svg">
<circle opacity="0.2" cx="51" cy="51" r="51" fill="#4572C8"/>
<g clip-path="url(#clip0_58_297)">
<g clip-path="url(#clip1_58_297)">
<path d="M52.9322 44C53.7456 44.0008 54.5255 44.3243 55.1007 44.8995C55.6759 45.4747 55.9994 46.2546 56.0002 47.068C56.0002 47.3332 56.1055 47.5876 56.293 47.7751C56.4806 47.9626 56.7349 48.068 57.0002 48.068C57.2654 48.068 57.5197 47.9626 57.7073 47.7751C57.8948 47.5876 58.0002 47.3332 58.0002 47.068V47C58.0002 46.981 58.0002 46.964 58.0002 46.945C57.9668 45.6227 57.4183 44.3658 56.4716 43.4421C55.5249 42.5183 54.2548 42.0009 52.9322 42H52.0002V41C52.0002 40.7348 51.8948 40.4804 51.7073 40.2929C51.5197 40.1054 51.2654 40 51.0002 40C50.7349 40 50.4806 40.1054 50.293 40.2929C50.1055 40.4804 50.0002 40.7348 50.0002 41V42H49.0682C47.8655 42.0013 46.7024 42.4302 45.7869 43.2102C44.8715 43.9901 44.2632 45.0702 44.0708 46.2574C43.8784 47.4446 44.1146 48.6615 44.7369 49.6907C45.3593 50.7198 46.3274 51.494 47.4682 51.875L50.0002 52.72V60H49.0682C48.2547 59.9992 47.4748 59.6757 46.8996 59.1005C46.3244 58.5253 46.0009 57.7454 46.0002 56.932C46.0002 56.6668 45.8948 56.4124 45.7073 56.2249C45.5197 56.0374 45.2654 55.932 45.0002 55.932C44.7349 55.932 44.4806 56.0374 44.293 56.2249C44.1055 56.4124 44.0002 56.6668 44.0002 56.932V57C44.0002 57.019 44.0002 57.036 44.0002 57.055C44.0335 58.3773 44.582 59.6342 45.5287 60.5579C46.4754 61.4817 47.7455 61.9991 49.0682 62H50.0002V63C50.0002 63.2652 50.1055 63.5196 50.293 63.7071C50.4806 63.8946 50.7349 64 51.0002 64C51.2654 64 51.5197 63.8946 51.7073 63.7071C51.8948 63.5196 52.0002 63.2652 52.0002 63V62H52.9322C54.1348 61.9987 55.2979 61.5698 56.2134 60.7898C57.1289 60.0099 57.7371 58.9298 57.9295 57.7426C58.1219 56.5554 57.8857 55.3385 57.2634 54.3093C56.641 53.2802 55.6729 52.506 54.5322 52.125L52.0002 51.28V44H52.9322ZM53.9022 54.021C54.5936 54.2511 55.1805 54.7198 55.5579 55.3432C55.9352 55.9666 56.0784 56.704 55.9617 57.4233C55.845 58.1426 55.4761 58.7969 54.921 59.269C54.3659 59.7411 53.6609 60.0003 52.9322 60H52.0002V53.387L53.9022 54.021ZM50.0002 50.613L48.1002 49.979C47.4089 49.7489 46.8221 49.2804 46.4447 48.6572C46.0673 48.034 45.924 47.2969 46.0405 46.5777C46.1569 45.8585 46.5255 45.2042 47.0802 44.7319C47.6349 44.2597 48.3396 44.0002 49.0682 44H50.0002V50.613Z" fill="#2B5EC0"/>
</g>
<circle cx="21" cy="36" r="5" fill="#2B5EC0"/>
<circle cx="83" cy="36" r="5" fill="#2B5EC0"/>
<circle cx="21" cy="67" r="5" fill="#2B5EC0"/>
<circle cx="83" cy="67" r="5" fill="#2B5EC0"/>
</g>
<rect x="15.5" y="34.5" width="71" height="34" stroke="#2B5EC0" stroke-width="3"/>
<defs>
<clipPath id="clip0_58_297">
<rect x="14" y="33" width="74" height="37" fill="white"/>
</clipPath>
<clipPath id="clip1_58_297">
<rect width="24" height="24" fill="white" transform="translate(39 40)"/>
</clipPath>
</defs>
</svg>
