<svg width="82" height="82" viewBox="0 0 82 82" fill="none" xmlns="http://www.w3.org/2000/svg">
<circle cx="41" cy="41" r="41" fill="#3C4EEC"/>
<g clip-path="url(#clip0_45_669)">
<path d="M41 40.9998C43.4327 40.9998 45.8108 40.2784 47.8335 38.9269C49.8562 37.5753 51.4327 35.6543 52.3637 33.4068C53.2947 31.1593 53.5382 28.6861 53.0636 26.3002C52.589 23.9142 51.4176 21.7226 49.6974 20.0024C47.9772 18.2822 45.7856 17.1107 43.3996 16.6361C41.0136 16.1615 38.5405 16.4051 36.293 17.3361C34.0454 18.267 32.1244 19.8435 30.7729 21.8663C29.4214 23.889 28.7 26.2671 28.7 28.6998C28.7032 31.9609 30.0002 35.0876 32.3062 37.3936C34.6122 39.6996 37.7388 40.9965 41 40.9998ZM41 20.4998C42.6218 20.4998 44.2072 20.9807 45.5557 21.8817C46.9041 22.7828 47.9552 24.0634 48.5758 25.5618C49.1964 27.0601 49.3588 28.7089 49.0424 30.2995C48.726 31.8902 47.945 33.3513 46.7983 34.4981C45.6515 35.6449 44.1904 36.4258 42.5997 36.7422C41.0091 37.0586 39.3603 36.8962 37.862 36.2756C36.3636 35.655 35.083 34.6039 34.1819 33.2555C33.2809 31.907 32.8 30.3216 32.8 28.6998C32.8 26.525 33.6639 24.4393 35.2017 22.9015C36.7395 21.3637 38.8252 20.4998 41 20.4998Z" fill="white"/>
<path d="M41 45.1013C36.1084 45.1067 31.4187 47.0523 27.9599 50.5112C24.501 53.9701 22.5554 58.6597 22.55 63.5513C22.55 64.095 22.766 64.6164 23.1504 65.0009C23.5349 65.3853 24.0563 65.6013 24.6 65.6013C25.1437 65.6013 25.6651 65.3853 26.0496 65.0009C26.434 64.6164 26.65 64.095 26.65 63.5513C26.65 59.7455 28.1619 56.0955 30.853 53.4043C33.5442 50.7132 37.1941 49.2013 41 49.2013C44.8058 49.2013 48.4558 50.7132 51.147 53.4043C53.8381 56.0955 55.35 59.7455 55.35 63.5513C55.35 64.095 55.566 64.6164 55.9504 65.0009C56.3349 65.3853 56.8563 65.6013 57.4 65.6013C57.9437 65.6013 58.4651 65.3853 58.8496 65.0009C59.234 64.6164 59.45 64.095 59.45 63.5513C59.4446 58.6597 57.499 53.9701 54.0401 50.5112C50.5812 47.0523 45.8916 45.1067 41 45.1013Z" fill="white"/>
</g>
<defs>
<clipPath id="clip0_45_669">
<rect width="49.2" height="49.2" fill="white" transform="translate(16.4 16.4)"/>
</clipPath>
</defs>
</svg>
