<svg width="55" height="55" viewBox="0 0 55 55" fill="none" xmlns="http://www.w3.org/2000/svg">
<circle cx="27.5" cy="27.5" r="27.5" fill="#2B5EC0"/>
<g clip-path="url(#clip0_130_2792)">
<path d="M42.1662 17.6268L31.4124 12.5037C29.0453 11.0898 26.099 11.0647 23.7081 12.4381L12.8333 17.6268C12.7925 17.6473 12.7502 17.6691 12.7108 17.6925C10.1301 19.1681 9.23419 22.4563 10.7098 25.0371C11.21 25.9119 11.9457 26.6287 12.8333 27.106L15.8331 28.5352V35.681C15.8349 38.8763 17.914 41.6993 20.965 42.649C23.0882 43.2632 25.2897 43.5639 27.4998 43.5415C29.7096 43.5662 31.9111 43.268 34.0346 42.6563C37.0856 41.7067 39.1647 38.8836 39.1665 35.6883V28.5323L42.0832 27.1381V39.1664C42.0832 39.9718 42.7361 40.6247 43.5415 40.6247C44.3469 40.6247 44.9998 39.9718 44.9998 39.1664V21.6664C45.0095 19.9539 43.6574 18.3719 42.1662 17.6268ZM36.2497 35.6883C36.2505 37.5996 35.0105 39.2902 33.1872 39.8635C31.3384 40.3918 29.4225 40.6482 27.4997 40.6248C25.577 40.6482 23.6611 40.3918 21.8122 39.8635C19.989 39.2901 18.749 37.5996 18.7497 35.6883V29.925L23.5871 32.2292C24.7806 32.938 26.1438 33.3104 27.5319 33.3069C28.8531 33.3163 30.1522 32.9665 31.29 32.2948L36.2497 29.9249V35.6883ZM40.9164 24.4737L29.9177 29.7237C28.3841 30.6167 26.4832 30.5914 24.9739 29.6581L14.2129 24.5393C13.0134 23.8925 12.5653 22.3958 13.2122 21.1963C13.4309 20.7907 13.7589 20.4544 14.1589 20.2256L25.0891 15.0048C26.6232 14.1138 28.523 14.139 30.0329 15.0704L40.7866 20.1935C41.5775 20.6327 42.0723 21.4619 42.083 22.3665C42.0845 23.2233 41.6433 24.0201 40.9164 24.4737Z" fill="white"/>
</g>
<defs>
<clipPath id="clip0_130_2792">
<rect width="35" height="35" fill="white" transform="translate(10 10)"/>
</clipPath>
</defs>
</svg>
