<svg width="760" height="110" viewBox="0 0 760 110" fill="none" xmlns="http://www.w3.org/2000/svg">
<mask id="path-1-outside-1_130_2880" maskUnits="userSpaceOnUse" x="-2" y="-1" width="763" height="112" fill="black">
<rect fill="white" x="-2" y="-1" width="763" height="112"/>
<path d="M75.6 91.95H40.2L34.95 108H0L38.85 1.8H77.25L115.95 108H80.85L75.6 91.95ZM67.5 66.9L57.9 37.35L48.3 66.9H67.5ZM194.616 53.55C201.016 55.05 205.966 58.15 209.466 62.85C213.066 67.45 214.866 72.8 214.866 78.9C214.866 88.2 211.766 95.4 205.566 100.5C199.466 105.5 190.666 108 179.166 108H123.516V1.8H177.666C188.466 1.8 196.966 4.15 203.166 8.85C209.366 13.55 212.466 20.4 212.466 29.4C212.466 35.6 210.816 40.85 207.516 45.15C204.316 49.35 200.016 52.15 194.616 53.55ZM156.816 43.2H169.716C172.716 43.2 174.916 42.6 176.316 41.4C177.816 40.2 178.566 38.35 178.566 35.85C178.566 33.25 177.816 31.35 176.316 30.15C174.916 28.85 172.716 28.2 169.716 28.2H156.816V43.2ZM171.966 81.3C174.966 81.3 177.166 80.75 178.566 79.65C180.066 78.45 180.816 76.55 180.816 73.95C180.816 68.85 177.866 66.3 171.966 66.3H156.816V81.3H171.966ZM277.805 109.05C267.805 109.05 258.605 106.7 250.205 102C241.905 97.3 235.305 90.8 230.405 82.5C225.505 74.2 223.055 64.85 223.055 54.45C223.055 44.05 225.505 34.7 230.405 26.4C235.305 18.1 241.905 11.65 250.205 7.04999C258.605 2.35 267.805 -4.29153e-06 277.805 -4.29153e-06C287.805 -4.29153e-06 296.955 2.35 305.255 7.04999C313.555 11.65 320.105 18.1 324.905 26.4C329.805 34.7 332.255 44.05 332.255 54.45C332.255 64.85 329.805 74.2 324.905 82.5C320.105 90.8 313.505 97.3 305.105 102C296.805 106.7 287.705 109.05 277.805 109.05ZM277.805 78C284.405 78 289.505 75.9 293.105 71.7C296.705 67.4 298.505 61.65 298.505 54.45C298.505 47.15 296.705 41.4 293.105 37.2C289.505 32.9 284.405 30.75 277.805 30.75C271.105 30.75 265.955 32.9 262.355 37.2C258.755 41.4 256.955 47.15 256.955 54.45C256.955 61.65 258.755 67.4 262.355 71.7C265.955 75.9 271.105 78 277.805 78ZM376.818 1.8V61.65C376.818 66.55 377.868 70.45 379.968 73.35C382.168 76.15 385.668 77.55 390.468 77.55C395.268 77.55 398.818 76.15 401.118 73.35C403.418 70.45 404.568 66.55 404.568 61.65V1.8H437.718V61.65C437.718 71.75 435.618 80.4 431.418 87.6C427.218 94.7 421.468 100.05 414.168 103.65C406.868 107.25 398.718 109.05 389.718 109.05C380.718 109.05 372.718 107.25 365.718 103.65C358.818 100.05 353.418 94.7 349.518 87.6C345.618 80.5 343.668 71.85 343.668 61.65V1.8H376.818ZM535.48 1.8V28.2H507.28V108H473.98V28.2H446.08V1.8H535.48ZM602.55 1.8V61.65C602.55 66.55 603.6 70.45 605.7 73.35C607.9 76.15 611.4 77.55 616.2 77.55C621 77.55 624.55 76.15 626.85 73.35C629.15 70.45 630.3 66.55 630.3 61.65V1.8H663.45V61.65C663.45 71.75 661.35 80.4 657.15 87.6C652.95 94.7 647.2 100.05 639.9 103.65C632.6 107.25 624.45 109.05 615.45 109.05C606.45 109.05 598.45 107.25 591.45 103.65C584.55 100.05 579.15 94.7 575.25 87.6C571.35 80.5 569.4 71.85 569.4 61.65V1.8H602.55ZM719.363 109.05C706.663 109.05 696.163 106.1 687.863 100.2C679.663 94.2 675.213 85.45 674.513 73.95H709.912C710.413 80.05 713.113 83.1 718.013 83.1C719.813 83.1 721.313 82.7 722.513 81.9C723.813 81 724.463 79.65 724.463 77.85C724.463 75.35 723.113 73.35 720.413 71.85C717.713 70.25 713.513 68.45 707.812 66.45C701.013 64.05 695.363 61.7 690.863 59.4C686.463 57.1 682.663 53.75 679.463 49.35C676.263 44.95 674.713 39.3 674.813 32.4C674.813 25.5 676.563 19.65 680.063 14.85C683.663 9.95 688.513 6.25 694.613 3.74999C700.813 1.24999 707.763 -4.29153e-06 715.463 -4.29153e-06C728.463 -4.29153e-06 738.763 3 746.363 9C754.063 15 758.113 23.45 758.512 34.35H722.663C722.563 31.35 721.813 29.2 720.413 27.9C719.013 26.6 717.313 25.95 715.313 25.95C713.913 25.95 712.763 26.45 711.863 27.45C710.963 28.35 710.513 29.65 710.513 31.35C710.513 33.75 711.813 35.75 714.412 37.35C717.113 38.85 721.363 40.7 727.163 42.9C733.863 45.4 739.363 47.8 743.663 50.1C748.063 52.4 751.863 55.6 755.062 59.7C758.263 63.8 759.863 68.95 759.863 75.15C759.863 81.65 758.263 87.5 755.062 92.7C751.863 97.8 747.213 101.8 741.113 104.7C735.013 107.6 727.763 109.05 719.363 109.05Z"/>
</mask>
<path d="M75.6 91.95L76.5504 91.6391L76.325 90.95H75.6V91.95ZM40.2 91.95V90.95H39.475L39.2496 91.6391L40.2 91.95ZM34.95 108V109H35.675L35.9004 108.311L34.95 108ZM0 108L-0.939133 107.656L-1.43063 109H0V108ZM38.85 1.8V0.799999H38.151L37.9109 1.45645L38.85 1.8ZM77.25 1.8L78.1896 1.45762L77.9499 0.799999H77.25V1.8ZM115.95 108V109H117.379L116.89 107.658L115.95 108ZM80.85 108L79.8996 108.311L80.125 109H80.85V108ZM67.5 66.9V67.9H68.8763L68.4511 66.591L67.5 66.9ZM57.9 37.35L58.8511 37.041L57.9 34.1135L56.9489 37.041L57.9 37.35ZM48.3 66.9L47.3489 66.591L46.9237 67.9H48.3V66.9ZM75.6 90.95H40.2V92.95H75.6V90.95ZM39.2496 91.6391L33.9996 107.689L35.9004 108.311L41.1504 92.2609L39.2496 91.6391ZM34.95 107H0V109H34.95V107ZM0.939133 108.344L39.7891 2.14355L37.9109 1.45645L-0.939133 107.656L0.939133 108.344ZM38.85 2.8H77.25V0.799999H38.85V2.8ZM76.3104 2.14238L115.01 108.342L116.89 107.658L78.1896 1.45762L76.3104 2.14238ZM115.95 107H80.85V109H115.95V107ZM81.8005 107.689L76.5504 91.6391L74.6496 92.2609L79.8996 108.311L81.8005 107.689ZM68.4511 66.591L58.8511 37.041L56.9489 37.659L66.5489 67.209L68.4511 66.591ZM56.9489 37.041L47.3489 66.591L49.2511 67.209L58.8511 37.659L56.9489 37.041ZM48.3 67.9H67.5V65.9H48.3V67.9ZM194.616 53.55L194.365 52.582L194.387 54.5236L194.616 53.55ZM209.466 62.85L208.664 63.4473L208.671 63.4569L208.678 63.4663L209.466 62.85ZM205.566 100.5L206.2 101.273L206.201 101.272L205.566 100.5ZM123.516 108H122.516V109H123.516V108ZM123.516 1.8V0.799999H122.516V1.8H123.516ZM207.516 45.15L206.722 44.5412L206.72 44.544L207.516 45.15ZM156.816 43.2H155.816V44.2H156.816V43.2ZM176.316 41.4L175.691 40.6191L175.678 40.6297L175.665 40.6407L176.316 41.4ZM176.316 30.15L175.635 30.8828L175.662 30.9079L175.691 30.9309L176.316 30.15ZM156.816 28.2V27.2H155.816V28.2H156.816ZM178.566 79.65L179.183 80.4363L179.19 80.4309L178.566 79.65ZM156.816 66.3V65.3H155.816V66.3H156.816ZM156.816 81.3H155.816V82.3H156.816V81.3ZM194.387 54.5236C200.588 55.9768 205.322 58.9596 208.664 63.4473L210.268 62.2527C206.61 57.3403 201.444 54.1232 194.844 52.5764L194.387 54.5236ZM208.678 63.4663C212.134 67.8822 213.866 73.0128 213.866 78.9H215.866C215.866 72.5872 213.997 67.0178 210.253 62.2337L208.678 63.4663ZM213.866 78.9C213.866 87.9539 210.861 94.8489 204.93 99.7277L206.201 101.272C212.67 95.9511 215.866 88.446 215.866 78.9H213.866ZM204.932 99.7266C199.076 104.526 190.537 107 179.166 107V109C190.794 109 199.855 106.474 206.2 101.273L204.932 99.7266ZM179.166 107H123.516V109H179.166V107ZM124.516 108V1.8H122.516V108H124.516ZM123.516 2.8H177.666V0.799999H123.516V2.8ZM177.666 2.8C188.33 2.8 196.592 5.12128 202.562 9.6469L203.77 8.05309C197.34 3.17872 188.601 0.799999 177.666 0.799999V2.8ZM202.562 9.6469C208.471 14.1266 211.466 20.6573 211.466 29.4H213.466C213.466 20.1427 210.26 12.9734 203.77 8.05309L202.562 9.6469ZM211.466 29.4C211.466 35.413 209.869 40.4404 206.722 44.5412L208.309 45.7588C211.762 41.2596 213.466 35.787 213.466 29.4H211.466ZM206.72 44.544C203.664 48.5552 199.561 51.2348 194.365 52.582L194.867 54.518C200.47 53.0652 204.967 50.1448 208.311 45.756L206.72 44.544ZM156.816 44.2H169.716V42.2H156.816V44.2ZM169.716 44.2C172.814 44.2 175.302 43.5863 176.966 42.1592L175.665 40.6407C174.53 41.6137 172.617 42.2 169.716 42.2V44.2ZM176.94 42.1809C178.745 40.7368 179.566 38.5548 179.566 35.85H177.566C177.566 38.1452 176.886 39.6632 175.691 40.6191L176.94 42.1809ZM179.566 35.85C179.566 33.0607 178.754 30.8204 176.94 29.3691L175.691 30.9309C176.877 31.8795 177.566 33.4393 177.566 35.85H179.566ZM176.996 29.4172C175.33 27.8702 172.83 27.2 169.716 27.2V29.2C172.601 29.2 174.501 29.8298 175.635 30.8828L176.996 29.4172ZM169.716 27.2H156.816V29.2H169.716V27.2ZM155.816 28.2V43.2H157.816V28.2H155.816ZM171.966 82.3C175.05 82.3 177.522 81.7416 179.183 80.4363L177.948 78.8637C176.809 79.7584 174.881 80.3 171.966 80.3V82.3ZM179.19 80.4309C181.004 78.9795 181.816 76.7393 181.816 73.95H179.816C179.816 76.3607 179.127 77.9205 177.941 78.8691L179.19 80.4309ZM181.816 73.95C181.816 71.2048 181.015 68.9754 179.257 67.456C177.527 65.9606 175.037 65.3 171.966 65.3V67.3C174.794 67.3 176.729 67.9144 177.949 68.969C179.141 69.9996 179.816 71.5952 179.816 73.95H181.816ZM171.966 65.3H156.816V67.3H171.966V65.3ZM155.816 66.3V81.3H157.816V66.3H155.816ZM156.816 82.3H171.966V80.3H156.816V82.3ZM250.205 102L249.712 102.87L249.716 102.873L250.205 102ZM230.405 82.5L229.544 83.0084L230.405 82.5ZM250.205 7.05L250.689 7.92465L250.693 7.92268L250.205 7.05ZM305.255 7.05L304.762 7.9202L304.77 7.92464L305.255 7.05ZM324.905 26.4L324.039 26.9006L324.044 26.9084L324.905 26.4ZM324.905 82.5L324.044 81.9916L324.039 81.9994L324.905 82.5ZM305.105 102L304.616 101.127L304.612 101.13L305.105 102ZM293.105 71.7L293.864 72.3508L293.871 72.3419L293.105 71.7ZM293.105 37.2L292.338 37.842L292.345 37.8508L293.105 37.2ZM262.355 37.2L263.114 37.8508L263.121 37.8419L262.355 37.2ZM262.355 71.7L261.588 72.342L261.595 72.3508L262.355 71.7ZM277.805 108.05C267.969 108.05 258.938 105.741 250.693 101.127L249.716 102.873C258.272 107.659 267.641 110.05 277.805 110.05V108.05ZM250.697 101.13C242.551 96.517 236.078 90.1425 231.266 81.9916L229.544 83.0084C234.532 91.4575 241.258 98.083 249.712 102.87L250.697 101.13ZM231.266 81.9916C226.464 73.8577 224.055 64.6858 224.055 54.45H222.055C222.055 65.0142 224.545 74.5423 229.544 83.0084L231.266 81.9916ZM224.055 54.45C224.055 44.2142 226.464 35.0423 231.266 26.9084L229.544 25.8916C224.545 34.3577 222.055 43.8858 222.055 54.45H224.055ZM231.266 26.9084C236.077 18.7593 242.548 12.4369 250.689 7.92464L249.72 6.17534C241.262 10.8631 234.533 17.4407 229.544 25.8916L231.266 26.9084ZM250.693 7.92268C258.938 3.30947 267.969 0.999996 277.805 0.999996V-1C267.641 -1 258.272 1.39051 249.716 6.17731L250.693 7.92268ZM277.805 0.999996C287.641 0.999996 296.62 3.30945 304.762 7.92017L305.747 6.17982C297.29 1.39054 287.969 -1 277.805 -1V0.999996ZM304.77 7.92464C312.91 12.4358 319.329 18.7558 324.039 26.9006L325.77 25.8994C320.881 17.4442 314.2 10.8642 305.739 6.17534L304.77 7.92464ZM324.044 26.9084C328.845 35.0423 331.255 44.2142 331.255 54.45H333.255C333.255 43.8858 330.764 34.3577 325.766 25.8916L324.044 26.9084ZM331.255 54.45C331.255 64.6858 328.845 73.8577 324.044 81.9916L325.766 83.0084C330.764 74.5423 333.255 65.0142 333.255 54.45H331.255ZM324.039 81.9994C319.329 90.143 312.86 96.5148 304.616 101.127L305.593 102.873C314.149 98.0852 320.88 91.457 325.77 83.0006L324.039 81.9994ZM304.612 101.13C296.468 105.741 287.539 108.05 277.805 108.05V110.05C287.871 110.05 297.141 107.659 305.597 102.87L304.612 101.13ZM277.805 79C284.635 79 290.037 76.8155 293.864 72.3508L292.345 71.0492C288.972 74.9845 284.175 77 277.805 77V79ZM293.871 72.3419C297.661 67.8159 299.505 61.8167 299.505 54.45H297.505C297.505 61.4833 295.749 66.9841 292.338 71.0581L293.871 72.3419ZM299.505 54.45C299.505 46.9886 297.663 40.9816 293.864 36.5492L292.345 37.8508C295.746 41.8184 297.505 47.3113 297.505 54.45H299.505ZM293.871 36.5581C290.047 31.9901 284.643 29.75 277.805 29.75V31.75C284.167 31.75 288.962 33.8099 292.338 37.8419L293.871 36.5581ZM277.805 29.75C270.872 29.75 265.415 31.9865 261.588 36.5581L263.121 37.8419C266.494 33.8135 271.337 31.75 277.805 31.75V29.75ZM261.595 36.5492C257.796 40.9816 255.955 46.9886 255.955 54.45H257.955C257.955 47.3113 259.713 41.8184 263.114 37.8508L261.595 36.5492ZM255.955 54.45C255.955 61.8167 257.799 67.8159 261.588 72.3419L263.121 71.0581C259.711 66.9841 257.955 61.4833 257.955 54.45H255.955ZM261.595 72.3508C265.425 76.819 270.88 79 277.805 79V77C271.329 77 266.484 74.981 263.114 71.0492L261.595 72.3508ZM376.818 1.8H377.818V0.799999H376.818V1.8ZM379.968 73.35L379.158 73.9365L379.169 73.9524L379.181 73.9678L379.968 73.35ZM401.118 73.35L401.89 73.9847L401.896 73.9781L401.901 73.9714L401.118 73.35ZM404.568 1.8V0.799999H403.568V1.8H404.568ZM437.718 1.8H438.718V0.799999H437.718V1.8ZM431.418 87.6L432.278 88.1091L432.281 88.1039L431.418 87.6ZM414.168 103.65L414.61 104.547L414.168 103.65ZM365.718 103.65L365.255 104.537L365.26 104.539L365.718 103.65ZM349.518 87.6L348.641 88.0814L349.518 87.6ZM343.668 1.8V0.799999H342.668V1.8H343.668ZM375.818 1.8V61.65H377.818V1.8H375.818ZM375.818 61.65C375.818 66.6846 376.896 70.8132 379.158 73.9365L380.778 72.7635C378.839 70.0868 377.818 66.4154 377.818 61.65H375.818ZM379.181 73.9678C381.632 77.0867 385.475 78.55 390.468 78.55V76.55C385.86 76.55 382.703 75.2133 380.754 72.7322L379.181 73.9678ZM390.468 78.55C395.463 78.55 399.343 77.0858 401.89 73.9847L400.345 72.7153C398.292 75.2142 395.072 76.55 390.468 76.55V78.55ZM401.901 73.9714C404.381 70.8447 405.568 66.7024 405.568 61.65H403.568C403.568 66.3976 402.454 70.0553 400.334 72.7286L401.901 73.9714ZM405.568 61.65V1.8H403.568V61.65H405.568ZM404.568 2.8H437.718V0.799999H404.568V2.8ZM436.718 1.8V61.65H438.718V1.8H436.718ZM436.718 61.65C436.718 71.6104 434.647 80.0784 430.554 87.0961L432.281 88.1039C436.588 80.7215 438.718 71.8896 438.718 61.65H436.718ZM430.557 87.0909C426.454 94.0261 420.849 99.2402 413.725 102.753L414.61 104.547C422.087 100.86 427.981 95.3739 432.278 88.1091L430.557 87.0909ZM413.725 102.753C406.577 106.278 398.581 108.05 389.718 108.05V110.05C398.855 110.05 407.158 108.222 414.61 104.547L413.725 102.753ZM389.718 108.05C380.854 108.05 373.014 106.278 366.175 102.761L365.26 104.539C372.421 108.222 380.581 110.05 389.718 110.05V108.05ZM366.18 102.763C359.462 99.2585 354.203 94.0531 350.394 87.1186L348.641 88.0814C352.632 95.3469 358.173 100.841 365.255 104.537L366.18 102.763ZM350.394 87.1186C346.593 80.1995 344.668 71.7245 344.668 61.65H342.668C342.668 71.9755 344.642 80.8005 348.641 88.0814L350.394 87.1186ZM344.668 61.65V1.8H342.668V61.65H344.668ZM343.668 2.8H376.818V0.799999H343.668V2.8ZM535.48 1.8H536.48V0.799999H535.48V1.8ZM535.48 28.2V29.2H536.48V28.2H535.48ZM507.28 28.2V27.2H506.28V28.2H507.28ZM507.28 108V109H508.28V108H507.28ZM473.98 108H472.98V109H473.98V108ZM473.98 28.2H474.98V27.2H473.98V28.2ZM446.08 28.2H445.08V29.2H446.08V28.2ZM446.08 1.8V0.799999H445.08V1.8H446.08ZM534.48 1.8V28.2H536.48V1.8H534.48ZM535.48 27.2H507.28V29.2H535.48V27.2ZM506.28 28.2V108H508.28V28.2H506.28ZM507.28 107H473.98V109H507.28V107ZM474.98 108V28.2H472.98V108H474.98ZM473.98 27.2H446.08V29.2H473.98V27.2ZM447.08 28.2V1.8H445.08V28.2H447.08ZM446.08 2.8H535.48V0.799999H446.08V2.8ZM602.55 1.8H603.55V0.799999H602.55V1.8ZM605.7 73.35L604.89 73.9365L604.902 73.9524L604.914 73.9678L605.7 73.35ZM626.85 73.35L627.623 73.9847L627.628 73.9781L627.633 73.9714L626.85 73.35ZM630.3 1.8V0.799999H629.3V1.8H630.3ZM663.45 1.8H664.45V0.799999H663.45V1.8ZM657.15 87.6L658.011 88.1091L658.014 88.1039L657.15 87.6ZM639.9 103.65L640.342 104.547L639.9 103.65ZM591.45 103.65L590.987 104.537L590.993 104.539L591.45 103.65ZM575.25 87.6L574.374 88.0814L575.25 87.6ZM569.4 1.8V0.799999H568.4V1.8H569.4ZM601.55 1.8V61.65H603.55V1.8H601.55ZM601.55 61.65C601.55 66.6846 602.628 70.8132 604.89 73.9365L606.51 72.7635C604.572 70.0868 603.55 66.4154 603.55 61.65H601.55ZM604.914 73.9678C607.364 77.0867 611.208 78.55 616.2 78.55V76.55C611.592 76.55 608.436 75.2133 606.486 72.7322L604.914 73.9678ZM616.2 78.55C621.195 78.55 625.075 77.0858 627.623 73.9847L626.077 72.7153C624.025 75.2142 620.805 76.55 616.2 76.55V78.55ZM627.633 73.9714C630.113 70.8447 631.3 66.7024 631.3 61.65H629.3C629.3 66.3976 628.187 70.0553 626.067 72.7286L627.633 73.9714ZM631.3 61.65V1.8H629.3V61.65H631.3ZM630.3 2.8H663.45V0.799999H630.3V2.8ZM662.45 1.8V61.65H664.45V1.8H662.45ZM662.45 61.65C662.45 71.6104 660.38 80.0784 656.286 87.0961L658.014 88.1039C662.32 80.7215 664.45 71.8896 664.45 61.65H662.45ZM656.289 87.0909C652.187 94.0261 646.581 99.2402 639.458 102.753L640.342 104.547C647.819 100.86 653.713 95.3739 658.011 88.1091L656.289 87.0909ZM639.458 102.753C632.309 106.278 624.313 108.05 615.45 108.05V110.05C624.587 110.05 632.891 108.222 640.342 104.547L639.458 102.753ZM615.45 108.05C606.586 108.05 598.747 106.278 591.907 102.761L590.993 104.539C598.153 108.222 606.314 110.05 615.45 110.05V108.05ZM591.913 102.763C585.195 99.2585 579.936 94.0531 576.126 87.1186L574.374 88.0814C578.364 95.3469 583.905 100.841 590.987 104.537L591.913 102.763ZM576.126 87.1186C572.326 80.1995 570.4 71.7245 570.4 61.65H568.4C568.4 71.9755 570.374 80.8005 574.374 88.0814L576.126 87.1186ZM570.4 61.65V1.8H568.4V61.65H570.4ZM569.4 2.8H602.55V0.799999H569.4V2.8ZM687.862 100.2L687.272 101.007L687.283 101.015L687.862 100.2ZM674.513 73.95V72.95H673.45L673.514 74.0108L674.513 73.95ZM709.912 73.95L710.909 73.8683L710.834 72.95H709.912V73.95ZM722.513 81.9L723.067 82.7321L723.075 82.7272L723.082 82.7222L722.513 81.9ZM720.412 71.85L719.903 72.7103L719.915 72.7174L719.927 72.7242L720.412 71.85ZM707.812 66.45L707.48 67.393L707.481 67.3936L707.812 66.45ZM690.862 59.4L690.399 60.2863L690.407 60.2904L690.862 59.4ZM679.463 49.35L680.271 48.7618L679.463 49.35ZM674.812 32.4L675.812 32.4145L675.812 32.4072V32.4H674.812ZM680.062 14.85L679.257 14.2579L679.255 14.2608L680.062 14.85ZM694.612 3.74999L694.239 2.82254L694.233 2.82469L694.612 3.74999ZM746.362 8.99999L745.743 9.7849L745.748 9.7888L746.362 8.99999ZM758.513 34.35V35.35H759.55L759.512 34.3133L758.513 34.35ZM722.662 34.35L721.663 34.3833L721.695 35.35H722.662V34.35ZM711.862 27.45L712.57 28.1571L712.588 28.1385L712.606 28.119L711.862 27.45ZM714.412 37.35L713.888 38.2017L713.907 38.2133L713.927 38.2242L714.412 37.35ZM727.162 42.9L726.808 43.835L726.813 43.8369L727.162 42.9ZM743.662 50.1L743.191 50.9818L743.199 50.9862L743.662 50.1ZM755.062 59.7L754.274 60.3153L755.062 59.7ZM755.062 92.7L755.91 93.2315L755.914 93.2241L755.062 92.7ZM741.112 104.7L740.683 103.797L741.112 104.7ZM719.362 108.05C706.818 108.05 696.535 105.138 688.442 99.3849L687.283 101.015C695.79 107.062 706.507 110.05 719.362 110.05V108.05ZM688.453 99.393C680.527 93.5935 676.195 85.1369 675.511 73.8892L673.514 74.0108C674.23 85.7631 678.798 94.8065 687.272 101.007L688.453 99.393ZM674.513 74.95H709.912V72.95H674.513V74.95ZM708.916 74.0317C709.175 77.1943 710.015 79.7253 711.564 81.4753C713.142 83.258 715.34 84.1 718.013 84.1V82.1C715.785 82.1 714.183 81.417 713.061 80.1497C711.91 78.8497 711.15 76.8057 710.909 73.8683L708.916 74.0317ZM718.013 84.1C719.961 84.1 721.666 83.6659 723.067 82.7321L721.958 81.0679C720.959 81.7341 719.664 82.1 718.013 82.1V84.1ZM723.082 82.7222C724.692 81.6073 725.463 79.9255 725.463 77.85H723.463C723.463 79.3745 722.933 80.3927 721.943 81.0778L723.082 82.7222ZM725.463 77.85C725.463 74.8962 723.828 72.6033 720.898 70.9758L719.927 72.7242C722.397 74.0967 723.463 75.8038 723.463 77.85H725.463ZM720.922 70.9897C718.135 69.3381 713.86 67.5121 708.144 65.5064L707.481 67.3936C713.165 69.3879 717.29 71.1619 719.903 72.7103L720.922 70.9897ZM708.145 65.507C701.371 63.1161 695.765 60.7828 691.318 58.5096L690.407 60.2904C694.96 62.6172 700.654 64.9839 707.48 67.393L708.145 65.507ZM691.326 58.5138C687.075 56.2918 683.389 53.0493 680.271 48.7618L678.654 49.9382C681.936 54.4507 685.85 57.9082 690.399 60.2862L691.326 58.5138ZM680.271 48.7618C677.229 44.5789 675.715 39.1568 675.812 32.4145L673.813 32.3855C673.71 39.4431 675.296 45.3211 678.654 49.9382L680.271 48.7618ZM675.812 32.4C675.812 25.6764 677.515 20.0415 680.87 15.4392L679.255 14.2608C675.61 19.2585 673.812 25.3236 673.812 32.4H675.812ZM680.868 15.4421C684.35 10.7027 689.047 7.11166 694.992 4.6753L694.233 2.82469C687.978 5.38834 682.975 9.1973 679.257 14.2579L680.868 15.4421ZM694.986 4.67743C701.051 2.23207 707.871 0.999996 715.463 0.999996V-1C707.654 -1 700.574 0.267921 694.239 2.82255L694.986 4.67743ZM715.463 0.999996C728.314 0.999996 738.371 3.96531 745.743 9.78488L746.982 8.21511C739.154 2.03468 728.611 -1 715.463 -1V0.999996ZM745.748 9.7888C753.186 15.5845 757.123 23.7429 757.513 34.3867L759.512 34.3133C759.102 23.1571 754.939 14.4155 746.977 8.2112L745.748 9.7888ZM758.513 33.35H722.662V35.35H758.513V33.35ZM723.662 34.3167C723.558 31.198 722.775 28.729 721.093 27.1672L719.732 28.6328C720.85 29.671 721.567 31.502 721.663 34.3833L723.662 34.3167ZM721.093 27.1672C719.499 25.6868 717.552 24.95 715.312 24.95V26.95C717.073 26.95 718.526 27.5132 719.732 28.6328L721.093 27.1672ZM715.312 24.95C713.642 24.95 712.217 25.5608 711.119 26.781L712.606 28.119C713.308 27.3392 714.183 26.95 715.312 26.95V24.95ZM711.155 26.7429C710.012 27.8867 709.513 29.4767 709.513 31.35H711.513C711.513 29.8233 711.913 28.8133 712.57 28.1571L711.155 26.7429ZM709.513 31.35C709.513 34.1931 711.085 36.4763 713.888 38.2017L714.937 36.4983C712.54 35.0237 711.513 33.3069 711.513 31.35H709.513ZM713.927 38.2242C716.693 39.7607 720.998 41.6313 726.808 43.835L727.517 41.965C721.727 39.7687 717.532 37.9393 714.898 36.4758L713.927 38.2242ZM726.813 43.8369C733.488 46.3278 738.944 48.7101 743.191 50.9818L744.134 49.2182C739.781 46.8899 734.237 44.4722 727.512 41.9631L726.813 43.8369ZM743.199 50.9862C747.467 53.217 751.158 56.3223 754.274 60.3153L755.851 59.0847C752.567 54.8777 748.658 51.583 744.126 49.2138L743.199 50.9862ZM754.274 60.3153C757.312 64.2075 758.862 69.1286 758.862 75.15H760.862C760.862 68.7714 759.213 63.3925 755.851 59.0847L754.274 60.3153ZM758.862 75.15C758.862 81.4774 757.307 87.1438 754.211 92.1759L755.914 93.2241C759.217 87.8562 760.862 81.8226 760.862 75.15H758.862ZM754.215 92.1685C751.128 97.0883 746.633 100.968 740.683 103.797L741.542 105.603C747.792 102.632 752.596 98.5117 755.91 93.2315L754.215 92.1685ZM740.683 103.797C734.746 106.619 727.649 108.05 719.362 108.05V110.05C727.876 110.05 735.279 108.581 741.542 105.603L740.683 103.797Z" fill="black" mask="url(#path-1-outside-1_130_2880)"/>
</svg>
