<svg width="981" height="110" viewBox="0 0 981 110" fill="none" xmlns="http://www.w3.org/2000/svg">
<mask id="path-1-outside-1_130_2905" maskUnits="userSpaceOnUse" x="-1" y="-1" width="983" height="112" fill="black">
<rect fill="white" x="-1" y="-1" width="983" height="112"/>
<path d="M0.5 54.75C0.5 44.25 2.6 34.9 6.8 26.7C11.1 18.5 17.2 12.15 25.1 7.65C33 3.05 42.3 0.749995 53 0.749995C62.2 0.749995 70.4 2.5 77.6 6C84.9 9.4 90.8 14.25 95.3 20.55C99.9 26.85 102.95 34.2 104.45 42.6H69.35C67.75 39.1 65.45 36.4 62.45 34.5C59.55 32.5 56.2 31.5 52.4 31.5C46.8 31.5 42.35 33.6 39.05 37.8C35.85 42 34.25 47.65 34.25 54.75C34.25 61.85 35.85 67.5 39.05 71.7C42.35 75.9 46.8 78 52.4 78C56.2 78 59.55 77.05 62.45 75.15C65.45 73.15 67.75 70.4 69.35 66.9H104.45C102.95 75.3 99.9 82.65 95.3 88.95C90.8 95.25 84.9 100.15 77.6 103.65C70.4 107.05 62.2 108.75 53 108.75C42.3 108.75 33 106.5 25.1 102C17.2 97.4 11.1 91 6.8 82.8C2.6 74.6 0.5 65.25 0.5 54.75ZM168.189 109.05C158.189 109.05 148.989 106.7 140.589 102C132.289 97.3 125.689 90.8 120.789 82.5C115.889 74.2 113.439 64.85 113.439 54.45C113.439 44.05 115.889 34.7 120.789 26.4C125.689 18.1 132.289 11.65 140.589 7.04999C148.989 2.35 158.189 -4.29153e-06 168.189 -4.29153e-06C178.189 -4.29153e-06 187.339 2.35 195.639 7.04999C203.939 11.65 210.489 18.1 215.289 26.4C220.189 34.7 222.639 44.05 222.639 54.45C222.639 64.85 220.189 74.2 215.289 82.5C210.489 90.8 203.889 97.3 195.489 102C187.189 106.7 178.089 109.05 168.189 109.05ZM168.189 78C174.789 78 179.889 75.9 183.489 71.7C187.089 67.4 188.889 61.65 188.889 54.45C188.889 47.15 187.089 41.4 183.489 37.2C179.889 32.9 174.789 30.75 168.189 30.75C161.489 30.75 156.339 32.9 152.739 37.2C149.139 41.4 147.339 47.15 147.339 54.45C147.339 61.65 149.139 67.4 152.739 71.7C156.339 75.9 161.489 78 168.189 78ZM336.502 108H303.202L267.952 54.6V108H234.652V1.8H267.952L303.202 56.1V1.8H336.502V108ZM434.947 1.8V28.2H406.747V108H373.447V28.2H345.547V1.8H434.947ZM512.079 91.95H476.679L471.429 108H436.479L475.329 1.8H513.729L552.429 108H517.329L512.079 91.95ZM503.979 66.9L494.379 37.35L484.779 66.9H503.979ZM556.994 54.75C556.994 44.25 559.094 34.9 563.294 26.7C567.594 18.5 573.694 12.15 581.594 7.65C589.494 3.05 598.794 0.749995 609.494 0.749995C618.694 0.749995 626.894 2.5 634.094 6C641.394 9.4 647.294 14.25 651.794 20.55C656.394 26.85 659.444 34.2 660.944 42.6H625.844C624.244 39.1 621.944 36.4 618.944 34.5C616.044 32.5 612.694 31.5 608.894 31.5C603.294 31.5 598.844 33.6 595.544 37.8C592.344 42 590.744 47.65 590.744 54.75C590.744 61.85 592.344 67.5 595.544 71.7C598.844 75.9 603.294 78 608.894 78C612.694 78 616.044 77.05 618.944 75.15C621.944 73.15 624.244 70.4 625.844 66.9H660.944C659.444 75.3 656.394 82.65 651.794 88.95C647.294 95.25 641.394 100.15 634.094 103.65C626.894 107.05 618.694 108.75 609.494 108.75C598.794 108.75 589.494 106.5 581.594 102C573.694 97.4 567.594 91 563.294 82.8C559.094 74.6 556.994 65.25 556.994 54.75ZM756.334 1.8V28.2H728.134V108H694.834V28.2H666.934V1.8H756.334ZM823.404 1.8V61.65C823.404 66.55 824.454 70.45 826.554 73.35C828.754 76.15 832.254 77.55 837.054 77.55C841.854 77.55 845.404 76.15 847.704 73.35C850.004 70.45 851.154 66.55 851.154 61.65V1.8H884.304V61.65C884.304 71.75 882.204 80.4 878.004 87.6C873.804 94.7 868.054 100.05 860.754 103.65C853.454 107.25 845.304 109.05 836.304 109.05C827.304 109.05 819.304 107.25 812.304 103.65C805.404 100.05 800.004 94.7 796.104 87.6C792.204 80.5 790.254 71.85 790.254 61.65V1.8H823.404ZM940.216 109.05C927.516 109.05 917.016 106.1 908.716 100.2C900.516 94.2 896.066 85.45 895.366 73.95H930.766C931.266 80.05 933.966 83.1 938.866 83.1C940.666 83.1 942.166 82.7 943.366 81.9C944.666 81 945.316 79.65 945.316 77.85C945.316 75.35 943.966 73.35 941.266 71.85C938.566 70.25 934.366 68.45 928.666 66.45C921.866 64.05 916.216 61.7 911.716 59.4C907.316 57.1 903.516 53.75 900.316 49.35C897.116 44.95 895.566 39.3 895.666 32.4C895.666 25.5 897.416 19.65 900.916 14.85C904.516 9.95 909.366 6.25 915.466 3.74999C921.666 1.24999 928.616 -4.29153e-06 936.316 -4.29153e-06C949.316 -4.29153e-06 959.616 3 967.216 9C974.916 15 978.966 23.45 979.366 34.35H943.516C943.416 31.35 942.666 29.2 941.266 27.9C939.866 26.6 938.166 25.95 936.166 25.95C934.766 25.95 933.616 26.45 932.716 27.45C931.816 28.35 931.366 29.65 931.366 31.35C931.366 33.75 932.666 35.75 935.266 37.35C937.966 38.85 942.216 40.7 948.016 42.9C954.716 45.4 960.216 47.8 964.516 50.1C968.916 52.4 972.716 55.6 975.916 59.7C979.116 63.8 980.716 68.95 980.716 75.15C980.716 81.65 979.116 87.5 975.916 92.7C972.716 97.8 968.066 101.8 961.966 104.7C955.866 107.6 948.616 109.05 940.216 109.05Z"/>
</mask>
<path d="M6.8 26.7L5.91434 26.2356L5.90996 26.2441L6.8 26.7ZM25.1 7.64999L25.595 8.51895L25.6032 8.51417L25.1 7.64999ZM77.6 6L77.1628 6.89937L77.1703 6.903L77.1778 6.9065L77.6 6ZM95.3 20.55L94.4862 21.1313L94.4924 21.1397L95.3 20.55ZM104.45 42.6V43.6H105.644L105.434 42.4242L104.45 42.6ZM69.35 42.6L68.4405 43.0158L68.7076 43.6H69.35V42.6ZM62.45 34.5L61.8823 35.3232L61.8984 35.3343L61.9149 35.3448L62.45 34.5ZM39.05 37.8L38.2637 37.1822L38.2591 37.188L38.2546 37.194L39.05 37.8ZM39.05 71.7L38.2546 72.306L38.2591 72.312L38.2637 72.3178L39.05 71.7ZM62.45 75.15L62.998 75.9865L63.0047 75.9821L62.45 75.15ZM69.35 66.9V65.9H68.7076L68.4405 66.4842L69.35 66.9ZM104.45 66.9L105.434 67.0758L105.644 65.9H104.45V66.9ZM95.3 88.95L94.4923 88.3603L94.4863 88.3688L95.3 88.95ZM77.6 103.65L78.027 104.554L78.0323 104.552L77.6 103.65ZM25.1 102L24.5968 102.864L24.605 102.869L25.1 102ZM6.8 82.8L5.90992 83.2559L5.91438 83.2644L6.8 82.8ZM1.5 54.75C1.5 44.3862 3.57184 35.1962 7.69004 27.1559L5.90996 26.2441C1.62817 34.6038 -0.5 44.1138 -0.5 54.75H1.5ZM7.68562 27.1644C11.8985 19.1305 17.8644 12.9224 25.595 8.51891L24.605 6.78108C16.5356 11.3776 10.3015 17.8695 5.91438 26.2356L7.68562 27.1644ZM25.6032 8.51417C33.3261 4.01728 42.4464 1.75 53 1.75V-0.250004C42.1536 -0.250004 32.6739 2.08271 24.5968 6.78582L25.6032 8.51417ZM53 1.75C62.0712 1.75 70.118 3.47481 77.1628 6.89937L78.0372 5.10063C70.682 1.52518 62.3289 -0.250004 53 -0.250004V1.75ZM77.1778 6.9065C84.328 10.2367 90.0907 14.9774 94.4863 21.1312L96.1137 19.9688C91.5094 13.5226 85.4721 8.56329 78.0222 5.0935L77.1778 6.9065ZM94.4924 21.1397C98.9946 27.3058 101.99 34.5111 103.466 42.7758L105.434 42.4242C103.91 33.8889 100.805 26.3942 96.1076 19.9603L94.4924 21.1397ZM104.45 41.6H69.35V43.6H104.45V41.6ZM70.2595 42.1842C68.5859 38.5234 66.1626 35.6676 62.9851 33.6552L61.9149 35.3448C64.7375 37.1324 66.9141 39.6766 68.4405 43.0158L70.2595 42.1842ZM63.0177 33.6768C59.9375 31.5525 56.386 30.5 52.4 30.5V32.5C56.014 32.5 59.1625 33.4475 61.8823 35.3232L63.0177 33.6768ZM52.4 30.5C46.5104 30.5 41.7637 32.7276 38.2637 37.1822L39.8363 38.4178C42.9363 34.4723 47.0896 32.5 52.4 32.5V30.5ZM38.2546 37.194C34.8827 41.6195 33.25 47.5059 33.25 54.75H35.25C35.25 47.7941 36.8173 42.3805 39.8454 38.406L38.2546 37.194ZM33.25 54.75C33.25 61.9941 34.8827 67.8805 38.2546 72.306L39.8454 71.0939C36.8173 67.1195 35.25 61.7059 35.25 54.75H33.25ZM38.2637 72.3178C41.7637 76.7723 46.5104 79 52.4 79V77C47.0896 77 42.9363 75.0276 39.8363 71.0822L38.2637 72.3178ZM52.4 79C56.3752 79 59.9196 78.0033 62.998 75.9865L61.902 74.3135C59.1804 76.0966 56.0248 77 52.4 77V79ZM63.0047 75.9821C66.1699 73.8719 68.5876 70.9729 70.2595 67.3158L68.4405 66.4842C66.9124 69.8271 64.7301 72.4281 61.8953 74.3179L63.0047 75.9821ZM69.35 67.9H104.45V65.9H69.35V67.9ZM103.466 66.7242C101.99 74.9889 98.9946 82.1942 94.4924 88.3603L96.1076 89.5397C100.805 83.1058 103.91 75.6111 105.434 67.0758L103.466 66.7242ZM94.4863 88.3688C90.0889 94.5251 84.3228 99.3178 77.1677 102.748L78.0323 104.552C85.4773 100.982 91.5111 95.9749 96.1137 89.5312L94.4863 88.3688ZM77.173 102.746C70.1258 106.074 62.0752 107.75 53 107.75V109.75C62.3248 109.75 70.6742 108.026 78.027 104.554L77.173 102.746ZM53 107.75C42.4427 107.75 33.3194 105.531 25.595 101.131L24.605 102.869C32.6806 107.469 42.1573 109.75 53 109.75V107.75ZM25.6032 101.136C17.8679 96.6317 11.8995 90.3713 7.68562 82.3356L5.91438 83.2644C10.3005 91.6287 16.5321 98.1683 24.5968 102.864L25.6032 101.136ZM7.69004 82.3441C3.57184 74.3038 1.5 65.1138 1.5 54.75H-0.5C-0.5 65.3862 1.62817 74.8962 5.90996 83.2559L7.69004 82.3441ZM140.589 102L140.097 102.87L140.101 102.873L140.589 102ZM120.789 82.5L119.928 83.0084L120.789 82.5ZM140.589 7.05L141.074 7.92465L141.078 7.92268L140.589 7.05ZM195.639 7.05L195.147 7.9202L195.155 7.92464L195.639 7.05ZM215.289 26.4L214.424 26.9006L214.428 26.9084L215.289 26.4ZM215.289 82.5L214.428 81.9916L214.424 81.9994L215.289 82.5ZM195.489 102L195.001 101.127L194.997 101.13L195.489 102ZM183.489 71.7L184.249 72.3508L184.256 72.3419L183.489 71.7ZM183.489 37.2L182.723 37.842L182.73 37.8508L183.489 37.2ZM152.739 37.2L153.499 37.8508L153.506 37.8419L152.739 37.2ZM152.739 71.7L151.973 72.342L151.98 72.3508L152.739 71.7ZM168.189 108.05C158.354 108.05 149.323 105.741 141.078 101.127L140.101 102.873C148.656 107.659 158.025 110.05 168.189 110.05V108.05ZM141.082 101.13C132.936 96.517 126.463 90.1425 121.651 81.9916L119.928 83.0084C124.916 91.4575 131.643 98.083 140.097 102.87L141.082 101.13ZM121.651 81.9916C116.849 73.8577 114.439 64.6858 114.439 54.45H112.439C112.439 65.0142 114.93 74.5423 119.928 83.0084L121.651 81.9916ZM114.439 54.45C114.439 44.2142 116.849 35.0423 121.651 26.9084L119.928 25.8916C114.93 34.3577 112.439 43.8858 112.439 54.45H114.439ZM121.651 26.9084C126.461 18.7593 132.933 12.4369 141.074 7.92464L140.105 6.17534C131.646 10.8631 124.917 17.4407 119.928 25.8916L121.651 26.9084ZM141.078 7.92268C149.323 3.30947 158.354 0.999996 168.189 0.999996V-1C158.025 -1 148.656 1.39051 140.101 6.17731L141.078 7.92268ZM168.189 0.999996C178.025 0.999996 187.004 3.30945 195.147 7.92017L196.132 6.17982C187.675 1.39054 178.353 -1 168.189 -1V0.999996ZM195.155 7.92464C203.294 12.4358 209.714 18.7558 214.424 26.9006L216.155 25.8994C211.265 17.4442 204.584 10.8642 196.124 6.17534L195.155 7.92464ZM214.428 26.9084C219.23 35.0423 221.639 44.2142 221.639 54.45H223.639C223.639 43.8858 221.149 34.3577 216.151 25.8916L214.428 26.9084ZM221.639 54.45C221.639 64.6858 219.23 73.8577 214.428 81.9916L216.151 83.0084C221.149 74.5423 223.639 65.0142 223.639 54.45H221.639ZM214.424 81.9994C209.714 90.143 203.245 96.5148 195.001 101.127L195.978 102.873C204.534 98.0852 211.265 91.457 216.155 83.0006L214.424 81.9994ZM194.997 101.13C186.853 105.741 177.924 108.05 168.189 108.05V110.05C178.255 110.05 187.526 107.659 195.982 102.87L194.997 101.13ZM168.189 79C175.019 79 180.422 76.8155 184.249 72.3508L182.73 71.0492C179.357 74.9845 174.56 77 168.189 77V79ZM184.256 72.3419C188.045 67.8159 189.889 61.8167 189.889 54.45H187.889C187.889 61.4833 186.133 66.9841 182.723 71.0581L184.256 72.3419ZM189.889 54.45C189.889 46.9886 188.048 40.9816 184.249 36.5492L182.73 37.8508C186.131 41.8184 187.889 47.3113 187.889 54.45H189.889ZM184.256 36.5581C180.432 31.9901 175.027 29.75 168.189 29.75V31.75C174.552 31.75 179.347 33.8099 182.723 37.8419L184.256 36.5581ZM168.189 29.75C161.257 29.75 155.8 31.9865 151.973 36.5581L153.506 37.8419C156.879 33.8135 161.722 31.75 168.189 31.75V29.75ZM151.98 36.5492C148.181 40.9816 146.339 46.9886 146.339 54.45H148.339C148.339 47.3113 150.098 41.8184 153.499 37.8508L151.98 36.5492ZM146.339 54.45C146.339 61.8167 148.183 67.8159 151.973 72.3419L153.506 71.0581C150.095 66.9841 148.339 61.4833 148.339 54.45H146.339ZM151.98 72.3508C155.81 76.819 161.265 79 168.189 79V77C161.714 77 156.869 74.981 153.499 71.0492L151.98 72.3508ZM336.502 108V109H337.502V108H336.502ZM303.202 108L302.368 108.551L302.664 109H303.202V108ZM267.952 54.6L268.787 54.0491L266.952 51.2699V54.6H267.952ZM267.952 108V109H268.952V108H267.952ZM234.652 108H233.652V109H234.652V108ZM234.652 1.8V0.799999H233.652V1.8H234.652ZM267.952 1.8L268.791 1.2555L268.495 0.799999H267.952V1.8ZM303.202 56.1L302.364 56.6445L304.202 59.477V56.1H303.202ZM303.202 1.8V0.799999H302.202V1.8H303.202ZM336.502 1.8H337.502V0.799999H336.502V1.8ZM336.502 107H303.202V109H336.502V107ZM304.037 107.449L268.787 54.0491L267.118 55.1509L302.368 108.551L304.037 107.449ZM266.952 54.6V108H268.952V54.6H266.952ZM267.952 107H234.652V109H267.952V107ZM235.652 108V1.8H233.652V108H235.652ZM234.652 2.8H267.952V0.799999H234.652V2.8ZM267.114 2.3445L302.364 56.6445L304.041 55.5555L268.791 1.2555L267.114 2.3445ZM304.202 56.1V1.8H302.202V56.1H304.202ZM303.202 2.8H336.502V0.799999H303.202V2.8ZM335.502 1.8V108H337.502V1.8H335.502ZM434.947 1.8H435.947V0.799999H434.947V1.8ZM434.947 28.2V29.2H435.947V28.2H434.947ZM406.747 28.2V27.2H405.747V28.2H406.747ZM406.747 108V109H407.747V108H406.747ZM373.447 108H372.447V109H373.447V108ZM373.447 28.2H374.447V27.2H373.447V28.2ZM345.547 28.2H344.547V29.2H345.547V28.2ZM345.547 1.8V0.799999H344.547V1.8H345.547ZM433.947 1.8V28.2H435.947V1.8H433.947ZM434.947 27.2H406.747V29.2H434.947V27.2ZM405.747 28.2V108H407.747V28.2H405.747ZM406.747 107H373.447V109H406.747V107ZM374.447 108V28.2H372.447V108H374.447ZM373.447 27.2H345.547V29.2H373.447V27.2ZM346.547 28.2V1.8H344.547V28.2H346.547ZM345.547 2.8H434.947V0.799999H345.547V2.8ZM512.078 91.95L513.029 91.6391L512.804 90.95H512.078V91.95ZM476.679 91.95V90.95H475.953L475.728 91.6391L476.679 91.95ZM471.429 108V109H472.154L472.379 108.311L471.429 108ZM436.479 108L435.539 107.656L435.048 109H436.479V108ZM475.329 1.8V0.799999H474.63L474.389 1.45645L475.329 1.8ZM513.729 1.8L514.668 1.45762L514.428 0.799999H513.729V1.8ZM552.429 108V109H553.857L553.368 107.658L552.429 108ZM517.328 108L516.378 108.311L516.603 109H517.328V108ZM503.979 66.9V67.9H505.355L504.93 66.591L503.979 66.9ZM494.379 37.35L495.33 37.041L494.379 34.1135L493.427 37.041L494.379 37.35ZM484.779 66.9L483.827 66.591L483.402 67.9H484.779V66.9ZM512.078 90.95H476.679V92.95H512.078V90.95ZM475.728 91.6391L470.478 107.689L472.379 108.311L477.629 92.2609L475.728 91.6391ZM471.429 107H436.479V109H471.429V107ZM437.418 108.344L476.268 2.14355L474.389 1.45645L435.539 107.656L437.418 108.344ZM475.329 2.8H513.729V0.799999H475.329V2.8ZM512.789 2.14238L551.489 108.342L553.368 107.658L514.668 1.45762L512.789 2.14238ZM552.429 107H517.328V109H552.429V107ZM518.279 107.689L513.029 91.6391L511.128 92.2609L516.378 108.311L518.279 107.689ZM504.93 66.591L495.33 37.041L493.427 37.659L503.027 67.209L504.93 66.591ZM493.427 37.041L483.827 66.591L485.73 67.209L495.33 37.659L493.427 37.041ZM484.779 67.9H503.979V65.9H484.779V67.9ZM563.294 26.7L562.409 26.2356L562.404 26.2441L563.294 26.7ZM581.594 7.64999L582.089 8.51895L582.097 8.51417L581.594 7.64999ZM634.094 6L633.657 6.89937L633.664 6.903L633.672 6.9065L634.094 6ZM651.794 20.55L650.98 21.1313L650.987 21.1397L651.794 20.55ZM660.944 42.6V43.6H662.139L661.929 42.4242L660.944 42.6ZM625.844 42.6L624.935 43.0158L625.202 43.6H625.844V42.6ZM618.944 34.5L618.376 35.3232L618.393 35.3343L618.409 35.3448L618.944 34.5ZM595.544 37.8L594.758 37.1822L594.753 37.188L594.749 37.194L595.544 37.8ZM595.544 71.7L594.749 72.306L594.753 72.312L594.758 72.3178L595.544 71.7ZM618.944 75.15L619.492 75.9865L619.499 75.9821L618.944 75.15ZM625.844 66.9V65.9H625.202L624.935 66.4842L625.844 66.9ZM660.944 66.9L661.929 67.0758L662.139 65.9H660.944V66.9ZM651.794 88.95L650.986 88.3603L650.98 88.3688L651.794 88.95ZM634.094 103.65L634.521 104.554L634.526 104.552L634.094 103.65ZM581.594 102L581.091 102.864L581.099 102.869L581.594 102ZM563.294 82.8L562.404 83.2559L562.409 83.2644L563.294 82.8ZM557.994 54.75C557.994 44.3862 560.066 35.1962 564.184 27.1559L562.404 26.2441C558.122 34.6038 555.994 44.1138 555.994 54.75H557.994ZM564.18 27.1644C568.393 19.1305 574.359 12.9224 582.089 8.51891L581.099 6.78108C573.03 11.3776 566.796 17.8695 562.409 26.2356L564.18 27.1644ZM582.097 8.51417C589.82 4.01728 598.94 1.75 609.494 1.75V-0.250004C598.648 -0.250004 589.168 2.08271 581.091 6.78582L582.097 8.51417ZM609.494 1.75C618.565 1.75 626.612 3.47481 633.657 6.89937L634.531 5.10063C627.176 1.52518 618.823 -0.250004 609.494 -0.250004V1.75ZM633.672 6.9065C640.822 10.2367 646.585 14.9774 650.98 21.1312L652.608 19.9688C648.003 13.5226 641.966 8.56329 634.516 5.0935L633.672 6.9065ZM650.987 21.1397C655.489 27.3058 658.484 34.5111 659.96 42.7758L661.929 42.4242C660.404 33.8889 657.3 26.3942 652.602 19.9603L650.987 21.1397ZM660.944 41.6H625.844V43.6H660.944V41.6ZM626.754 42.1842C625.08 38.5234 622.657 35.6676 619.479 33.6552L618.409 35.3448C621.232 37.1324 623.408 39.6766 624.935 43.0158L626.754 42.1842ZM619.512 33.6768C616.432 31.5525 612.88 30.5 608.894 30.5V32.5C612.508 32.5 615.657 33.4475 618.376 35.3232L619.512 33.6768ZM608.894 30.5C603.005 30.5 598.258 32.7276 594.758 37.1822L596.33 38.4178C599.43 34.4723 603.584 32.5 608.894 32.5V30.5ZM594.749 37.194C591.377 41.6195 589.744 47.5059 589.744 54.75H591.744C591.744 47.7941 593.311 42.3805 596.34 38.406L594.749 37.194ZM589.744 54.75C589.744 61.9941 591.377 67.8805 594.749 72.306L596.34 71.0939C593.311 67.1195 591.744 61.7059 591.744 54.75H589.744ZM594.758 72.3178C598.258 76.7723 603.005 79 608.894 79V77C603.584 77 599.43 75.0276 596.33 71.0822L594.758 72.3178ZM608.894 79C612.869 79 616.414 78.0033 619.492 75.9865L618.396 74.3135C615.674 76.0966 612.519 77 608.894 77V79ZM619.499 75.9821C622.664 73.8719 625.082 70.9729 626.754 67.3158L624.935 66.4842C623.406 69.8271 621.224 72.4281 618.389 74.3179L619.499 75.9821ZM625.844 67.9H660.944V65.9H625.844V67.9ZM659.96 66.7242C658.484 74.9889 655.489 82.1942 650.987 88.3603L652.602 89.5397C657.3 83.1058 660.404 75.6111 661.929 67.0758L659.96 66.7242ZM650.98 88.3688C646.583 94.5251 640.817 99.3178 633.662 102.748L634.526 104.552C641.971 100.982 648.005 95.9749 652.608 89.5312L650.98 88.3688ZM633.667 102.746C626.62 106.074 618.569 107.75 609.494 107.75V109.75C618.819 109.75 627.168 108.026 634.521 104.554L633.667 102.746ZM609.494 107.75C598.937 107.75 589.814 105.531 582.089 101.131L581.099 102.869C589.175 107.469 598.651 109.75 609.494 109.75V107.75ZM582.097 101.136C574.362 96.6317 568.394 90.3713 564.18 82.3356L562.409 83.2644C566.795 91.6287 573.026 98.1683 581.091 102.864L582.097 101.136ZM564.184 82.3441C560.066 74.3038 557.994 65.1138 557.994 54.75H555.994C555.994 65.3862 558.122 74.8962 562.404 83.2559L564.184 82.3441ZM756.334 1.8H757.334V0.799999H756.334V1.8ZM756.334 28.2V29.2H757.334V28.2H756.334ZM728.134 28.2V27.2H727.134V28.2H728.134ZM728.134 108V109H729.134V108H728.134ZM694.834 108H693.834V109H694.834V108ZM694.834 28.2H695.834V27.2H694.834V28.2ZM666.934 28.2H665.934V29.2H666.934V28.2ZM666.934 1.8V0.799999H665.934V1.8H666.934ZM755.334 1.8V28.2H757.334V1.8H755.334ZM756.334 27.2H728.134V29.2H756.334V27.2ZM727.134 28.2V108H729.134V28.2H727.134ZM728.134 107H694.834V109H728.134V107ZM695.834 108V28.2H693.834V108H695.834ZM694.834 27.2H666.934V29.2H694.834V27.2ZM667.934 28.2V1.8H665.934V28.2H667.934ZM666.934 2.8H756.334V0.799999H666.934V2.8ZM823.404 1.8H824.404V0.799999H823.404V1.8ZM826.554 73.35L825.744 73.9365L825.755 73.9524L825.767 73.9678L826.554 73.35ZM847.703 73.35L848.476 73.9847L848.482 73.9781L848.487 73.9714L847.703 73.35ZM851.154 1.8V0.799999H850.154V1.8H851.154ZM884.304 1.8H885.304V0.799999H884.304V1.8ZM878.004 87.6L878.864 88.1091L878.867 88.1039L878.004 87.6ZM860.754 103.65L861.196 104.547L860.754 103.65ZM812.304 103.65L811.841 104.537L811.846 104.539L812.304 103.65ZM796.104 87.6L795.227 88.0814L796.104 87.6ZM790.254 1.8V0.799999H789.254V1.8H790.254ZM822.404 1.8V61.65H824.404V1.8H822.404ZM822.404 61.65C822.404 66.6846 823.482 70.8132 825.744 73.9365L827.363 72.7635C825.425 70.0868 824.404 66.4154 824.404 61.65H822.404ZM825.767 73.9678C828.218 77.0867 832.061 78.55 837.054 78.55V76.55C832.446 76.55 829.289 75.2133 827.34 72.7322L825.767 73.9678ZM837.054 78.55C842.049 78.55 845.929 77.0858 848.476 73.9847L846.931 72.7153C844.878 75.2142 841.658 76.55 837.054 76.55V78.55ZM848.487 73.9714C850.967 70.8447 852.154 66.7024 852.154 61.65H850.154C850.154 66.3976 849.04 70.0553 846.92 72.7286L848.487 73.9714ZM852.154 61.65V1.8H850.154V61.65H852.154ZM851.154 2.8H884.304V0.799999H851.154V2.8ZM883.304 1.8V61.65H885.304V1.8H883.304ZM883.304 61.65C883.304 71.6104 881.233 80.0784 877.14 87.0961L878.867 88.1039C883.174 80.7215 885.304 71.8896 885.304 61.65H883.304ZM877.143 87.0909C873.04 94.0261 867.435 99.2402 860.311 102.753L861.196 104.547C868.672 100.86 874.567 95.3739 878.864 88.1091L877.143 87.0909ZM860.311 102.753C853.163 106.278 845.167 108.05 836.304 108.05V110.05C845.44 110.05 853.744 108.222 861.196 104.547L860.311 102.753ZM836.304 108.05C827.44 108.05 819.6 106.278 812.761 102.761L811.846 104.539C819.007 108.222 827.167 110.05 836.304 110.05V108.05ZM812.766 102.763C806.048 99.2585 800.789 94.0531 796.98 87.1186L795.227 88.0814C799.218 95.3469 804.759 100.841 811.841 104.537L812.766 102.763ZM796.98 87.1186C793.179 80.1995 791.254 71.7245 791.254 61.65H789.254C789.254 71.9755 791.228 80.8005 795.227 88.0814L796.98 87.1186ZM791.254 61.65V1.8H789.254V61.65H791.254ZM790.254 2.8H823.404V0.799999H790.254V2.8ZM908.716 100.2L908.125 101.007L908.137 101.015L908.716 100.2ZM895.366 73.95V72.95H894.303L894.368 74.0108L895.366 73.95ZM930.766 73.95L931.763 73.8683L931.687 72.95H930.766V73.95ZM943.366 81.9L943.921 82.7321L943.928 82.7272L943.935 82.7222L943.366 81.9ZM941.266 71.85L940.756 72.7103L940.768 72.7174L940.78 72.7242L941.266 71.85ZM928.666 66.45L928.333 67.393L928.335 67.3936L928.666 66.45ZM911.716 59.4L911.253 60.2863L911.261 60.2904L911.716 59.4ZM900.316 49.35L901.125 48.7618L900.316 49.35ZM895.666 32.4L896.666 32.4145L896.666 32.4072V32.4H895.666ZM900.916 14.85L900.11 14.2579L900.108 14.2608L900.916 14.85ZM915.466 3.74999L915.092 2.82254L915.087 2.82469L915.466 3.74999ZM967.216 8.99999L966.596 9.7849L966.601 9.7888L967.216 8.99999ZM979.366 34.35V35.35H980.403L980.365 34.3133L979.366 34.35ZM943.516 34.35L942.517 34.3833L942.549 35.35H943.516V34.35ZM932.716 27.45L933.423 28.1571L933.442 28.1385L933.459 28.119L932.716 27.45ZM935.266 37.35L934.742 38.2017L934.761 38.2133L934.78 38.2242L935.266 37.35ZM948.016 42.9L947.661 43.835L947.666 43.8369L948.016 42.9ZM964.516 50.1L964.044 50.9818L964.053 50.9862L964.516 50.1ZM975.916 59.7L975.128 60.3153L975.916 59.7ZM975.916 92.7L976.763 93.2315L976.768 93.2241L975.916 92.7ZM961.966 104.7L961.537 103.797L961.966 104.7ZM940.216 108.05C927.672 108.05 917.388 105.138 909.295 99.3849L908.137 101.015C916.644 107.062 927.36 110.05 940.216 110.05V108.05ZM909.307 99.393C901.381 93.5935 897.049 85.1369 896.364 73.8892L894.368 74.0108C895.083 85.7631 899.651 94.8065 908.125 101.007L909.307 99.393ZM895.366 74.95H930.766V72.95H895.366V74.95ZM929.769 74.0317C930.029 77.1943 930.868 79.7253 932.417 81.4753C933.995 83.258 936.193 84.1 938.866 84.1V82.1C936.639 82.1 935.037 81.417 933.915 80.1497C932.764 78.8497 932.003 76.8057 931.763 73.8683L929.769 74.0317ZM938.866 84.1C940.814 84.1 942.52 83.6659 943.921 82.7321L942.811 81.0679C941.812 81.7341 940.518 82.1 938.866 82.1V84.1ZM943.935 82.7222C945.546 81.6073 946.316 79.9255 946.316 77.85H944.316C944.316 79.3745 943.786 80.3927 942.797 81.0778L943.935 82.7222ZM946.316 77.85C946.316 74.8962 944.681 72.6033 941.752 70.9758L940.78 72.7242C943.251 74.0967 944.316 75.8038 944.316 77.85H946.316ZM941.776 70.9897C938.989 69.3381 934.713 67.5121 928.997 65.5064L928.335 67.3936C934.019 69.3879 938.143 71.1619 940.756 72.7103L941.776 70.9897ZM928.999 65.507C922.225 63.1161 916.619 60.7828 912.171 58.5096L911.261 60.2904C915.813 62.6172 921.507 64.9839 928.333 67.393L928.999 65.507ZM912.179 58.5138C907.929 56.2918 904.243 53.0493 901.125 48.7618L899.507 49.9382C902.789 54.4507 906.703 57.9082 911.253 60.2862L912.179 58.5138ZM901.125 48.7618C898.083 44.5789 896.568 39.1568 896.666 32.4145L894.666 32.3855C894.564 39.4431 896.149 45.3211 899.507 49.9382L901.125 48.7618ZM896.666 32.4C896.666 25.6764 898.368 20.0415 901.724 15.4392L900.108 14.2608C896.464 19.2585 894.666 25.3236 894.666 32.4H896.666ZM901.722 15.4421C905.204 10.7027 909.901 7.11166 915.845 4.6753L915.087 2.82469C908.831 5.38834 903.828 9.1973 900.11 14.2579L901.722 15.4421ZM915.84 4.67743C921.904 2.23207 928.725 0.999996 936.316 0.999996V-1C928.507 -1 921.428 0.267921 915.092 2.82255L915.84 4.67743ZM936.316 0.999996C949.168 0.999996 959.225 3.96531 966.596 9.78488L967.836 8.21511C960.007 2.03468 949.464 -1 936.316 -1V0.999996ZM966.601 9.7888C974.039 15.5845 977.976 23.7429 978.367 34.3867L980.365 34.3133C979.956 23.1571 975.793 14.4155 967.831 8.2112L966.601 9.7888ZM979.366 33.35H943.516V35.35H979.366V33.35ZM944.515 34.3167C944.411 31.198 943.628 28.729 941.946 27.1672L940.586 28.6328C941.704 29.671 942.421 31.502 942.517 34.3833L944.515 34.3167ZM941.946 27.1672C940.352 25.6868 938.405 24.95 936.166 24.95V26.95C937.927 26.95 939.38 27.5132 940.586 28.6328L941.946 27.1672ZM936.166 24.95C934.496 24.95 933.071 25.5608 931.973 26.781L933.459 28.119C934.161 27.3392 935.036 26.95 936.166 26.95V24.95ZM932.009 26.7429C930.865 27.8867 930.366 29.4767 930.366 31.35H932.366C932.366 29.8233 932.767 28.8133 933.423 28.1571L932.009 26.7429ZM930.366 31.35C930.366 34.1931 931.938 36.4763 934.742 38.2017L935.79 36.4983C933.394 35.0237 932.366 33.3069 932.366 31.35H930.366ZM934.78 38.2242C937.546 39.7607 941.852 41.6313 947.661 43.835L948.371 41.965C942.58 39.7687 938.386 37.9393 935.752 36.4758L934.78 38.2242ZM947.666 43.8369C954.342 46.3278 959.797 48.7101 964.044 50.9818L964.988 49.2182C960.635 46.8899 955.09 44.4722 948.366 41.9631L947.666 43.8369ZM964.053 50.9862C968.32 53.217 972.011 56.3223 975.128 60.3153L976.704 59.0847C973.421 54.8777 969.512 51.583 964.979 49.2138L964.053 50.9862ZM975.128 60.3153C978.166 64.2075 979.716 69.1286 979.716 75.15H981.716C981.716 68.7714 980.067 63.3925 976.704 59.0847L975.128 60.3153ZM979.716 75.15C979.716 81.4774 978.161 87.1438 975.064 92.1759L976.768 93.2241C980.071 87.8562 981.716 81.8226 981.716 75.15H979.716ZM975.069 92.1685C971.982 97.0883 967.487 100.968 961.537 103.797L962.395 105.603C968.646 102.632 973.45 98.5117 976.763 93.2315L975.069 92.1685ZM961.537 103.797C955.599 106.619 948.503 108.05 940.216 108.05V110.05C948.729 110.05 956.133 108.581 962.395 105.603L961.537 103.797Z" fill="black" mask="url(#path-1-outside-1_130_2905)"/>
</svg>
